<mxfile host="Electron" modified="2024-01-11T01:04:32.512Z" agent="Mozilla/5.0 (Windows NT 10.0; Win64; x64) AppleWebKit/537.36 (KHTML, like Gecko) draw.io/22.1.16 Chrome/120.0.6099.109 Electron/28.1.0 Safari/537.36" etag="RSwmStR0t_pNSfzfx6BM" version="22.1.16" type="device">
  <diagram name="Page-1" id="9m8SMNWLLEwHs40LoCL6">
    <mxGraphModel dx="880" dy="542" grid="1" gridSize="10" guides="1" tooltips="1" connect="1" arrows="1" fold="1" page="1" pageScale="1" pageWidth="850" pageHeight="1100" math="0" shadow="0">
      <root>
        <mxCell id="0" />
        <mxCell id="1" parent="0" />
        <mxCell id="qBlWz0imi4JqjvklMvZu-4" style="edgeStyle=orthogonalEdgeStyle;rounded=0;orthogonalLoop=1;jettySize=auto;html=1;entryX=0.5;entryY=0;entryDx=0;entryDy=0;" parent="1" source="qBlWz0imi4JqjvklMvZu-2" target="qBlWz0imi4JqjvklMvZu-3" edge="1">
          <mxGeometry relative="1" as="geometry" />
        </mxCell>
        <mxCell id="qBlWz0imi4JqjvklMvZu-2" value="START" style="html=1;dashed=0;whiteSpace=wrap;shape=mxgraph.dfd.start" parent="1" vertex="1">
          <mxGeometry x="110" y="40" width="90" height="30" as="geometry" />
        </mxCell>
        <mxCell id="qBlWz0imi4JqjvklMvZu-6" style="edgeStyle=orthogonalEdgeStyle;rounded=0;orthogonalLoop=1;jettySize=auto;html=1;entryX=0.5;entryY=0;entryDx=0;entryDy=0;" parent="1" source="qBlWz0imi4JqjvklMvZu-3" target="qBlWz0imi4JqjvklMvZu-5" edge="1">
          <mxGeometry relative="1" as="geometry" />
        </mxCell>
        <mxCell id="qBlWz0imi4JqjvklMvZu-3" value="Scan Fingerprint" style="rounded=0;whiteSpace=wrap;html=1;" parent="1" vertex="1">
          <mxGeometry x="95" y="140" width="120" height="60" as="geometry" />
        </mxCell>
        <mxCell id="qBlWz0imi4JqjvklMvZu-10" style="edgeStyle=orthogonalEdgeStyle;rounded=0;orthogonalLoop=1;jettySize=auto;html=1;entryX=0;entryY=0.5;entryDx=0;entryDy=0;" parent="1" source="qBlWz0imi4JqjvklMvZu-5" edge="1">
          <mxGeometry relative="1" as="geometry">
            <mxPoint x="530" y="285" as="targetPoint" />
          </mxGeometry>
        </mxCell>
        <mxCell id="qBlWz0imi4JqjvklMvZu-5" value="Fingerprint Matched" style="rhombus;whiteSpace=wrap;html=1;" parent="1" vertex="1">
          <mxGeometry x="107.5" y="240" width="95" height="90" as="geometry" />
        </mxCell>
        <mxCell id="qBlWz0imi4JqjvklMvZu-11" value="END" style="html=1;dashed=0;whiteSpace=wrap;shape=mxgraph.dfd.start" parent="1" vertex="1">
          <mxGeometry x="545" y="430" width="90" height="30" as="geometry" />
        </mxCell>
        <mxCell id="qBlWz0imi4JqjvklMvZu-16" style="edgeStyle=orthogonalEdgeStyle;rounded=0;orthogonalLoop=1;jettySize=auto;html=1;" parent="1" source="qBlWz0imi4JqjvklMvZu-14" target="qBlWz0imi4JqjvklMvZu-11" edge="1">
          <mxGeometry relative="1" as="geometry" />
        </mxCell>
        <mxCell id="qBlWz0imi4JqjvklMvZu-14" value="Attendance Recorded" style="rounded=0;whiteSpace=wrap;html=1;" parent="1" vertex="1">
          <mxGeometry x="530" y="255" width="120" height="60" as="geometry" />
        </mxCell>
        <mxCell id="qBlWz0imi4JqjvklMvZu-15" style="edgeStyle=orthogonalEdgeStyle;rounded=0;orthogonalLoop=1;jettySize=auto;html=1;entryX=0;entryY=0.5;entryDx=0;entryDy=0;entryPerimeter=0;" parent="1" source="qBlWz0imi4JqjvklMvZu-5" target="qBlWz0imi4JqjvklMvZu-11" edge="1">
          <mxGeometry relative="1" as="geometry">
            <Array as="points">
              <mxPoint x="155" y="445" />
            </Array>
          </mxGeometry>
        </mxCell>
        <mxCell id="kfyuqrT95L-P6ml099bU-1" value="Y" style="text;html=1;strokeColor=none;fillColor=none;align=center;verticalAlign=middle;whiteSpace=wrap;rounded=0;" vertex="1" parent="1">
          <mxGeometry x="180" y="260" width="60" height="30" as="geometry" />
        </mxCell>
        <mxCell id="kfyuqrT95L-P6ml099bU-2" value="N" style="text;html=1;strokeColor=none;fillColor=none;align=center;verticalAlign=middle;whiteSpace=wrap;rounded=0;" vertex="1" parent="1">
          <mxGeometry x="140" y="320" width="60" height="30" as="geometry" />
        </mxCell>
      </root>
    </mxGraphModel>
  </diagram>
</mxfile>
